<svg width="120" height="120" viewBox="0 0 120 120" fill="none" xmlns="http://www.w3.org/2000/svg">
<path fill-rule="evenodd" clip-rule="evenodd" d="M10 0C4.47716 0 0 4.47714 0 10V110C0 115.523 4.47716 120 10 120H110C115.523 120 120 115.523 120 110V10C120 4.47714 115.523 0 110 0H10ZM9 105.336C9 107.811 11.2613 109.048 15.784 109.048C21.3307 109.048 29.864 107.043 41.384 103.032C49.576 100.131 56.9573 96.9307 63.528 93.432C70.0987 89.9333 75.9867 86.136 81.192 82.04L84.52 81.656C85.032 81.5707 85.544 81.528 86.056 81.528C86.568 81.528 87.0374 81.4853 87.464 81.4C89.0853 81.3147 89.896 80.8453 89.896 79.992C89.896 79.48 89.512 79.224 88.744 79.224H88.104H86.312C85.8 79.224 85.3734 79.2667 85.032 79.352L84.136 79.48C90.7067 73.592 93.864 67.7893 93.608 62.072C93.864 58.744 91.0053 56.1413 85.032 54.264C81.8747 53.24 75.7307 52.088 66.6 50.808C55.4213 49.1013 49.832 46.2427 49.832 42.232C49.832 41.1227 50.216 39.8 50.984 38.264C54.4827 31.1813 60.7547 25.464 69.8 21.112C74.0667 19.1493 78.376 17.656 82.728 16.632C87.1653 15.5227 91.7307 14.968 96.424 14.968C103.848 14.968 107.56 17.016 107.56 21.112C107.56 22.7333 106.92 24.568 105.64 26.616C105.128 27.4693 104.872 28.1093 104.872 28.536C104.872 28.8773 105 29.048 105.256 29.048C105.853 29.048 106.621 28.3227 107.56 26.872C109.864 23.288 111.016 20.3013 111.016 17.912C111.016 13.304 106.963 11 98.856 11C87.7627 11 76.1573 14.5413 64.04 21.624C53.032 28.024 46.5467 34.2533 44.584 40.312C44.072 41.848 43.816 43.2133 43.816 44.408C43.816 47.5653 45.6933 49.9973 49.448 51.704C52.3493 52.984 57.5547 54.136 65.064 55.16C73.1707 56.2693 77.9067 57.0374 79.272 57.464C83.88 58.8293 86.184 61.176 86.184 64.504C86.184 65.272 86.056 66.1253 85.8 67.064C84.6053 71.5867 81.192 76.1093 75.56 80.632C70.3547 81.4 64.936 82.3813 59.304 83.576C53.672 84.6853 47.784 85.9653 41.64 87.416C34.8987 89.0374 27.944 91.7253 20.776 95.48C13.5227 99.32 9.64 102.179 9.12801 104.056C9.04266 104.227 9 104.653 9 105.336ZM39.976 98.936C27.2613 103.629 18.9413 105.976 15.016 105.976C13.9067 105.976 13.352 105.72 13.352 105.208V105.08C13.352 103.459 16.6373 101.112 23.208 98.04C26.4507 96.5894 29.608 95.2667 32.68 94.072C35.752 92.9627 38.7813 92.0667 41.768 91.384C47.9973 89.848 53.5013 88.4827 58.28 87.288C63.0587 86.008 67.24 84.8987 70.824 83.96C62.2907 89.7627 52.008 94.7547 39.976 98.936Z" fill="url(#paint0_linear_13_28)"/>
<defs>
<linearGradient id="paint0_linear_13_28" x1="1.5" y1="4" x2="117.5" y2="120" gradientUnits="userSpaceOnUse">
<stop stop-color="#D500FF"/>
<stop offset="0.501447" stop-color="#F4009B"/>
<stop offset="1" stop-color="#BF00FF"/>
</linearGradient>
</defs>
</svg>